<?xml version="1.0" encoding="UTF-8"?>
<svg id="Layer_1" xmlns="http://www.w3.org/2000/svg" version="1.1" viewBox="0 0 752.31 238.1">
  <!-- Generator: Adobe Illustrator 30.0.0, SVG Export Plug-In . SVG Version: 2.1.1 Build 123)  -->
  <defs>
    <style>
      .st0 {
        fill: #525252;
      }
    </style>
  </defs>
  <path d="M103.7,4.32c13.56.19,26.31,1.64,38.75,5.33,9.63,2.86,18.5,7.06,25.9,14.03,7.13,6.72,12.56,14.66,17.08,23.3,9.14,17.5,18.33,34.98,27.48,52.47,8.23,15.72,16.43,31.46,24.65,47.19,4.18,8.01,8.38,16,12.59,24,.21.4.3,1.01.86,1.05.71.05.84-.64,1.09-1.11,3.43-6.42,6.84-12.84,10.27-19.26,10.3-19.33,20.61-38.66,30.91-57.99,8.64-16.23,17.26-32.47,25.9-48.7,6.23-11.71,12.5-23.41,18.71-35.14.65-1.23,1.44-1.74,2.82-1.73,5.68.05,11.36,0,17.04.03,2.29,0,2.45.27,1.38,2.29-4.26,8.05-8.56,16.09-12.84,24.14-9.73,18.27-19.47,36.55-29.2,54.82-9.74,18.27-19.49,36.53-29.22,54.81-11.23,21.1-22.44,42.21-33.67,63.31-4.17,7.83-8.39,15.64-12.5,23.5-.89,1.7-1.94,2.43-3.92,2.36-4.07-.16-8.16-.09-12.24-.02-1.48.03-2.3-.55-2.98-1.86-8.6-16.61-17.24-33.2-25.91-49.78-10.14-19.41-20.33-38.8-30.47-58.22-8.66-16.58-17.24-33.2-25.95-49.75-5.99-11.39-11.62-22.97-18.06-34.12-3.21-5.55-6.89-10.78-11.41-15.38-6.4-6.51-14.19-10.24-23.15-11.67-2.23-.36-2.23-.37-2.24-2.7,0-.88-.02-1.76,0-2.64.05-1.67.18-1.85,1.74-1.92,5.75-.24,11.5-.45,16.61-.65Z"/>
  <path d="M59.78,114.16c0,24.56-.01,49.12,0,73.68,0,5.44.32,10.87,1.41,16.22.59,2.91,1.47,5.72,2.74,8.42,2.73,5.81,7.48,8.97,13.54,10.47,3.98.98,8.02,1.42,12.11,1.44,1.2,0,2.4.02,3.6.01,1.57,0,1.83,1.1,1.3,3.31-.36,1.5-.28,3.06.08,4.56.46,1.89.01,2.66-1.28,2.65-.56,0-1.12.01-1.68.01-17.84,0-35.68.03-53.52-.02-5.14-.01-10.2-.74-15.15-2.16-9.04-2.61-14.47-8.7-16.99-17.6-1.91-6.75-2.63-13.67-2.64-20.64-.06-41.68-.02-83.36-.05-125.03,0-2.33.54-4.34,1.85-6.29,10.62-15.86,25.34-25.17,44.25-27.86,2.86-.41,5.71-.76,8.6-.71.96.01,1.76.75,1.81,1.7.04.75.01,1.49.01,2.24,0,25.2,0,50.4,0,75.6ZM5.99,4.88q-3,0-3.01,3.1c0,1.92,0,3.83,0,5.75,0,5.03-.02,10.07.01,15.1.01,2.14.18,2.21,2.22,1.47.15-.05.29-.13.44-.19,12.53-4.8,25.5-7.69,38.85-8.91,4.3-.39,8.6-.64,12.91-.72,1-.02,2.03-.03,2.03-1.41.02-4.31.01-8.63,0-12.94,0-.75-.45-1.17-1.2-1.21-.64-.03-1.28-.04-1.92-.04-8.31,0-16.62,0-24.92,0-8.47,0-16.94,0-25.4,0Z"/>
  <path d="M477.08,236.22c-11.47.28-22.85-.8-34.1-2.95-25.66-4.9-48.72-15.3-68.15-33.05-9.05-8.27-16.36-17.93-22.17-28.74-6.16-11.46-10.12-23.64-11.85-36.52-1.56-11.56-1.48-23.12.33-34.66,3.3-21.03,12.12-39.46,26.13-55.41,11.76-13.39,26.17-23.17,42.33-30.45,13.36-6.02,27.36-9.76,41.87-11.75,10.73-1.47,21.51-1.89,32.31-1.59,14.2.39,28.2,2.34,41.86,6.35,19.85,5.83,37.81,15.17,53.08,29.27,14.77,13.64,25.17,30.08,30.95,49.4,4.04,13.49,5.52,27.31,4.41,41.27-1.88,23.61-10.21,44.75-25.54,62.97-10.45,12.41-23.11,21.99-37.5,29.42-12.24,6.32-25.15,10.69-38.63,13.31-11.64,2.26-23.41,3.42-35.3,3.13ZM556.14,104.53c-.88-12-2.74-23.82-6.6-35.26-4.28-12.68-10.65-24.06-20.3-33.52-10.49-10.28-23.13-16.04-37.49-18.33-6.65-1.06-13.35-1.32-20.08-.95-8.52.47-16.82,2.02-24.77,5.17-14.22,5.62-24.92,15.37-32.85,28.29-8.18,13.33-12.23,28.05-14.28,43.4-1.46,10.96-1.85,21.97-1.44,33.02.46,12.34,1.9,24.54,5.23,36.46,3.39,12.14,8.56,23.4,16.6,33.22,8.88,10.84,20.03,18.24,33.56,21.95,13.66,3.75,27.5,4.08,41.33,1.35,18.54-3.66,33.13-13.46,43.71-29.13,8.44-12.49,12.99-26.47,15.46-41.2,1.67-9.96,2.47-19.99,2.26-29.2-.01-5.69,0-10.48-.36-15.27Z"/>
  <path class="st0" d="M693.62,221.86c0,4.24,0,8.47,0,12.71,0,1.2.13,2.61-1.35,2.99-1.53.39-3.17.59-4.64-.34-.49-.31-.71-.86-.75-1.44-.04-.48-.05-.96-.05-1.44,0-8.31,0-16.62,0-24.93,0-1.2-.17-2.59,1.2-3.12,1.51-.59,3.14-.62,4.66.08.82.38.92,1.25.93,2.07.01,2,.01,4,.02,5.99,0,2.48,0,4.95,0,7.43ZM690.26,194.45c-2.41,0-3.95,1.76-3.88,4.45.06,2.61,1.56,4.25,3.86,4.25,2.42,0,3.89-1.71,3.85-4.48-.04-2.66-1.45-4.23-3.83-4.23Z"/>
  <path class="st0" d="M635.76,207.9c2.69-.53,5.41-1.15,8.15-1.6,6.99-1.14,13.99-1.27,20.97.2,2.51.53,4.93,1.34,7.13,2.71,5.31,3.32,6.91,8.37,6.45,14.24-.51,6.41-4.09,10.57-10.05,12.74-3.25,1.18-6.63,1.76-10.08,1.97-6.92.43-13.72-.36-20.38-2.26-.54-.15-1.08-.29-1.61-.46-.8-.25-1.27-.07-1.73.73-.89,1.57-3.45,2.11-4.99,1.22-.6-.35-.93-.88-1-1.55-.08-.87-.13-1.75-.13-2.63,0-11.35,0-22.69,0-34.04,0-.08,0-.16,0-.24.03-3.61.68-4.23,4.2-4.03,1.93.11,2.61.69,2.68,2.62.09,2.55.01,5.11.04,7.67,0,.86-.18,1.76.36,2.7ZM635.39,226.55c.02,2.06.03,2.09,1.94,2.68,6.47,2.02,13.1,2.94,19.87,2.58,3.19-.17,6.38-.49,9.35-1.86,2.2-1.02,4.03-2.49,4.58-4.92,1.4-6.29-.44-9.77-5.72-11.7-2.28-.83-4.66-1.1-7.05-1.3-7.25-.6-14.35.32-21.35,2.23-1.2.33-1.68.97-1.63,2.21.07,1.76.02,3.52.02,5.28,0,1.6-.02,3.2,0,4.8Z"/>
  <path class="st0" d="M726.94,238.16c-4.34.18-8.62-.25-12.82-1.38-.39-.1-.77-.22-1.15-.33-9.95-2.88-12.41-11.11-10.63-18.85.98-4.26,3.63-7.21,7.55-9.05,3.59-1.69,7.44-2.48,11.34-2.83,6.24-.55,12.46-.4,18.56,1.27.38.11.77.22,1.15.34,9.09,2.8,13.09,10.01,10.66,19.2-1.12,4.25-3.85,7.09-7.78,8.86-3.92,1.76-8.09,2.45-12.33,2.76-1.51.11-3.03.02-4.55.02ZM740.05,229.85c3.65-1.45,5.24-4.22,5.24-8.04,0-4.09-1.51-6.41-5.29-7.95-1.17-.48-2.41-.85-3.66-1.11-4.16-.88-8.39-1.11-12.62-.8-3.34.24-6.68.61-9.81,1.96-4.95,2.13-6.8,8.33-3.84,12.87,1.1,1.69,2.74,2.63,4.57,3.3,3.96,1.44,8.09,1.7,12.3,1.85,4.42-.14,8.88-.4,13.11-2.08Z"/>
</svg>