<?xml version="1.0" encoding="UTF-8"?>
<svg id="Layer_1" data-name="Layer 1" xmlns="http://www.w3.org/2000/svg" viewBox="0 0 1024 1024">
  <defs>
    <style>
      .cls-1 {
        stroke-width: 2px;
      }

      .cls-1, .cls-2 {
        fill: #1d1d1b;
        stroke: #231f20;
        stroke-miterlimit: 10;
      }

      .cls-2 {
        stroke-width: 3.8px;
      }
    </style>
  </defs>
  <path class="cls-1" d="M204.54,406.58v10.82c-2.37-.15-4.76-.22-7.18-.22-16.4,0-31.88,3.44-45.57,9.53v-20.13h52.75ZM227.76,609.56c-.75-.06-1.5-.14-2.24-.24h0c-1.5-.17-2.89-.44-4.18-.79-.02,0-.03,0-.04-.01-15.36-4.12-16.67-19.28-16.76-23.02-.01-.54,0-.84,0-.84v-158.85h-10.18c-.13,0-.26,0-.38.02-18.53.47-34.47,10.73-42.19,25.47v137.67c0,11.28,5.13,22.88,15.06,27.6,3.67,1.46,7.64,2.41,11.8,2.74h57.83v-9.76h-8.71ZM151.79,426.71"/>
  <path class="cls-1" d="M462.91,406.58l-82.21,155.46-62.65-119.72s0-.01,0-.02l-2.65-5.07v-.23c-1.27-2.07-2.78-4.04-4.49-5.89-6.01-8.87-16.41-15.84-29.11-19.36-5.95-2.32-12.58-3.84-19.6-4.37-6.61-1.19-34.31-.21-34.31-.21v9.72c.86.09,1.71.21,2.55.35.75.12,1.49.26,2.22.43,2.11.46,4.14,1.06,6.08,1.8,8.76,3.33,15.75,9.35,19.44,16.8l.02.03,18.92,34.92,5.4,10.17,1.9,3.58,2.59,4.9h0l68.71,129.51h15.47l110.77-212.8h-19.04Z"/>
  <path class="cls-1" d="M589.62,404.61c-69.98,0-126.71,48.08-126.71,107.39s56.73,107.39,126.71,107.39,126.71-48.08,126.71-107.39-56.73-107.39-126.71-107.39ZM662.88,541.28c0,35.21-29.36,64.01-65.25,64.01h-15.25c-35.89,0-65.25-28.81-65.25-64.01v-58.93c0-35.21,29.36-64.01,65.25-64.01h15.25c34.71,5.84,65.25,28.81,65.25,64.01v58.93Z"/>
  <path class="cls-2" d="M735.44,616.48v-46.71h3.57v16.5h.06c3.33-1.12,13.24-4.05,24.2-4.05,21.61,0,26.91,7.79,26.91,17.38,0,10.4-6.71,17.5-26.48,17.5-11.82,0-21.68-3.61-24.88-4.73h-.12l-.37,4.11h-2.89ZM739.01,589.58v19.81c3.2,1.12,12.87,4.61,24.69,4.61,17.98,0,22.78-6.04,22.78-14.39,0-7.54-3.76-14.26-23.22-14.26-11.89,0-21.92,3.3-24.26,4.24Z"/>
  <path class="cls-2" d="M803.61,568.96c1.66,0,2.34,1.06,2.34,2.93s-.68,3.05-2.34,3.05-2.34-1.12-2.34-3.05.68-2.93,2.34-2.93ZM805.4,616.48h-3.57v-33.63h3.57v33.63Z"/>
  <path class="cls-2" d="M823.25,612.5c-3.76-2.55-6.22-6.41-6.22-12.83s2.34-10.15,6.22-12.77c4.31-2.86,11.89-4.67,21.37-4.67s17.06,1.81,21.43,4.67c3.88,2.62,6.16,6.6,6.16,12.77s-2.4,10.21-6.22,12.83c-4.19,2.8-11.39,4.61-21.37,4.61s-17.18-1.74-21.37-4.61ZM863.47,610.07c3.02-1.93,5.05-5.29,5.05-10.4s-1.79-8.35-4.99-10.4c-3.63-2.37-10.28-3.92-18.91-3.92s-15.27,1.56-18.91,3.92c-3.14,2.06-4.99,5.17-4.99,10.4s2.09,8.47,5.05,10.4c3.63,2.3,10.41,3.92,18.84,3.92s15.27-1.62,18.84-3.92Z"/>
</svg>